<svg width="25" height="24" viewBox="0 0 25 24" fill="none" xmlns="http://www.w3.org/2000/svg">
<path d="M18.25 10.5C20.5972 10.5 22.5 8.59721 22.5 6.25C22.5 3.90279 20.5972 2 18.25 2C15.9028 2 14 3.90279 14 6.25C14 8.59721 15.9028 10.5 18.25 10.5Z" stroke="#EC2156" stroke-width="1.5"/>
<path d="M6.75 10.5C9.09721 10.5 11 8.59721 11 6.25C11 3.90279 9.09721 2 6.75 2C4.40279 2 2.5 3.90279 2.5 6.25C2.5 8.59721 4.40279 10.5 6.75 10.5Z" stroke="#EC2156" stroke-width="1.5"/>
<path d="M18.25 22C20.5972 22 22.5 20.0972 22.5 17.75C22.5 15.4028 20.5972 13.5 18.25 13.5C15.9028 13.5 14 15.4028 14 17.75C14 20.0972 15.9028 22 18.25 22Z" stroke="#EC2156" stroke-width="1.5"/>
<path d="M6.75 22C9.09721 22 11 20.0972 11 17.75C11 15.4028 9.09721 13.5 6.75 13.5C4.40279 13.5 2.5 15.4028 2.5 17.75C2.5 20.0972 4.40279 22 6.75 22Z" stroke="#EC2156" stroke-width="1.5"/>
</svg>
