<svg width="25" height="24" viewBox="0 0 25 24" fill="none" xmlns="http://www.w3.org/2000/svg">
<path d="M15.5 8C15.5 9.65685 14.1569 11 12.5 11C10.8431 11 9.5 9.65685 9.5 8C9.5 6.34315 10.8431 5 12.5 5C14.1569 5 15.5 6.34315 15.5 8Z" stroke="#919191" stroke-width="1.5" stroke-linecap="round" stroke-linejoin="round"/>
<path d="M16.5 4C18.1568 4 19.5 5.34315 19.5 7C19.5 8.22309 18.768 9.27523 17.7183 9.7423" stroke="#919191" stroke-width="1.5" stroke-linecap="round" stroke-linejoin="round"/>
<path d="M14.2143 14H10.7857C8.41878 14 6.5 15.9188 6.5 18.2857C6.5 19.2325 7.26751 20 8.21428 20H16.7857C17.7325 20 18.5 19.2325 18.5 18.2857C18.5 15.9188 16.5812 14 14.2143 14Z" stroke="#919191" stroke-width="1.5" stroke-linecap="round" stroke-linejoin="round"/>
<path d="M18.2143 13C20.5812 13 22.5 14.9188 22.5 17.2857C22.5 18.2325 21.7325 19 20.7857 19" stroke="#919191" stroke-width="1.5" stroke-linecap="round" stroke-linejoin="round"/>
<path d="M8.5 4C6.84315 4 5.5 5.34315 5.5 7C5.5 8.22309 6.23193 9.27523 7.28168 9.7423" stroke="#919191" stroke-width="1.5" stroke-linecap="round" stroke-linejoin="round"/>
<path d="M4.21429 19C3.26751 19 2.5 18.2325 2.5 17.2857C2.5 14.9188 4.41878 13 6.78571 13" stroke="#919191" stroke-width="1.5" stroke-linecap="round" stroke-linejoin="round"/>
</svg>
