<svg width="25" height="24" viewBox="0 0 25 24" fill="none" xmlns="http://www.w3.org/2000/svg">
<path d="M19.2491 9.70957V9.00497C19.2491 5.13623 16.2274 2 12.5 2C8.77256 2 5.75087 5.13623 5.75087 9.00497V9.70957C5.75087 10.5552 5.50972 11.3818 5.0578 12.0854L3.95036 13.8095C2.93882 15.3843 3.71105 17.5249 5.47036 18.0229C10.0727 19.3257 14.9273 19.3257 19.5296 18.0229C21.289 17.5249 22.0612 15.3843 21.0496 13.8095L19.9422 12.0854C19.4903 11.3818 19.2491 10.5552 19.2491 9.70957Z" stroke="#222222" stroke-width="1.5"/>
<path d="M8 19C8.65503 20.7478 10.4225 22 12.5 22C14.5775 22 16.345 20.7478 17 19" stroke="#222222" stroke-width="1.5" stroke-linecap="round"/>
<path d="M12.5 6V10" stroke="#222222" stroke-width="1.5" stroke-linecap="round"/>
</svg>
